<svg xmlns="http://www.w3.org/2000/svg" width="198" height="46" fill="none">
  <path fill="#131215" d="M67.297 4.485c-9.957 0-18.083 8.165-18.083 18.17 0 10.12 8.126 18.285 18.083 18.17 9.957 0 18.083-8.165 18.083-18.17 0-10.005-8.126-18.17-18.083-18.17Zm0 27.6a9.376 9.376 0 0 1-9.385-9.43c0-5.175 4.235-9.43 9.385-9.43 5.15 0 9.385 4.255 9.385 9.43s-4.235 9.43-9.385 9.43ZM92.247 13.34c4.921 0 8.927 3.91 9.156 8.855h9.271c-.229-9.66-8.126-17.48-17.855-17.48h-2.861v8.625h2.289ZM92.248 31.97l-2.175-.115v8.74h2.862c9.728 0 17.511-7.82 17.854-17.48h-9.271c-.343 4.945-4.349 8.855-9.27 8.855ZM117.427 20.7l3.662 1.955-3.662 1.725v16.33h24.721v-8.625h-15.679V27.14h11.33V18.4h-11.33v-4.715h15.794V4.83l-24.951-.115V20.7h.115ZM174.995 4.715v17.71l-26.209-18.4V40.71h9.614v-18.4l26.209 19.09V4.715h-9.614ZM34.678 24.035l-8.812-7.245-8.126 7.245L14.192 4.83H4.234l7.44 36.8 14.192-12.995L40.057 41.63l7.44-36.8h-9.042l-3.777 19.205Z"></path>
</svg>